<svg width="231" height="48" viewBox="0 0 231 48" fill="none" xmlns="http://www.w3.org/2000/svg">


  <path d="M0.425781 12.6316C0.425781 5.65535 6.08113 0 13.0574 0H35.7942C42.7704 0 48.4258 5.65535 48.4258 12.6316V35.3684C48.4258 42.3446 42.7704 48 35.7942 48H13.0574C6.08113 48 0.425781 42.3446 0.425781 35.3684V12.6316Z" fill="#22C55E"/>


  <path d="M24.5 30C25.6046 30 26.5 30.8954 26.5 32C26.5 33.1046 25.6046 34 24.5 34C23.3954 34 22.5 33.1046 22.5 32C22.5 30.8954 23.3954 30 24.5 30Z" fill="white"/>
  
  <path d="M18 27C21 24.5 28 24.5 31 27" stroke="white" stroke-width="2.5" stroke-linecap="round"/>
  
  <path d="M14 23C19 18.5 30 18.5 35 23" stroke="white" stroke-width="2.5" stroke-linecap="round"/>
  
  <path d="M10 19C18 12 31 12 39 19" stroke="white" stroke-width="2.5" stroke-linecap="round"/>


  <text 
    x="66" 
    y="30" 
    fill="white" 
    font-size="22" 
    font-family="Inter, Arial, sans-serif" 
    font-weight="700"
  >
    DIOLAY
  </text>

</svg>